# xmcd CD database file
#
# Track frame offsets:
#	150
#	38088
#	74566
#	100494
#	126613
#	168946
#	203537
#	250751
#
# Disc length: 3825 seconds
#
# Revision: 0
# Processed by: cddbd v1.5.2PL0 Copyright (c) Steve Scherf et al.
# Submitted via: CDex 1.51
#
DISCID=700eef08
DTITLE=UGESTU - Live at cellar
DYEAR=2006
DGENRE=Jazz
TTITLE0=Backstage Sally
TTITLE1=King for a day
TTITLE2=Back at the Sugar Shack
TTITLE3=That Old Feeling
TTITLE4=Maybe Yes, Maybe No
TTITLE5=Carribean Fire Dance
TTITLE6=Open Book
TTITLE7=Chowder
EXTD=YEAR: 2006
EXTT0=
EXTT1=
EXTT2=
EXTT3=
EXTT4=
EXTT5=
EXTT6=
EXTT7=
PLAYORDER=
